<svg width="126" height="127" viewBox="0 0 126 127" fill="none" xmlns="http://www.w3.org/2000/svg">
<path d="M36.0277 114.3C28.9877 114.3 22.9611 111.534 17.9477 106.001C12.9344 100.469 10.4277 93.818 10.4277 86.049V15.4214H112.828C116.348 15.4214 119.361 16.8046 121.868 19.5708C124.374 22.3371 125.628 25.6624 125.628 29.547V50.7352C125.628 54.6197 124.374 57.9451 121.868 60.7114C119.361 63.4776 116.348 64.8607 112.828 64.8607H100.028V86.049C100.028 93.818 97.5211 100.469 92.5077 106.001C87.4944 111.534 81.4677 114.3 74.4277 114.3H36.0277ZM36.0277 100.175H74.4277C77.9477 100.175 80.9611 98.7914 83.4677 96.0251C85.9744 93.2589 87.2277 89.9335 87.2277 86.049V29.547H23.2277V86.049C23.2277 89.9335 24.4811 93.2589 26.9877 96.0251C29.4944 98.7914 32.5077 100.175 36.0277 100.175ZM100.028 50.7352H112.828V29.547H100.028V50.7352ZM36.0277 100.175H23.2277H87.2277H36.0277Z" fill="white"/>
<rect x="21" y="24" width="69" height="80" fill="white"/>
<path d="M76.7651 62.392C76.7651 75.311 67.0923 88.3459 58.4557 85.7839C43.8312 78.9891 56.3909 71.3032 61.9103 55.8199C67.668 39.6683 48.3437 39 58.4557 39C68.5677 39 76.7651 49.4729 76.7651 62.392Z" fill="#009DFF"/>
<path d="M36 63.608C36 50.689 45.6728 37.6541 54.3094 40.2161C63.8671 43.8919 62.1397 56.3677 50.7396 70.1801C39.8 82.433 64.4214 87 54.3094 87C44.1974 87 36 76.5271 36 63.608Z" fill="#1BA8FF"/>
</svg>
