<svg width="208" height="36" viewBox="0 0 208 36" fill="none" xmlns="http://www.w3.org/2000/svg">
<path d="M2.15199 29V7.18182H10.5043C12.081 7.18182 13.3913 7.4304 14.4354 7.92756C15.4865 8.41761 16.2713 9.08878 16.7898 9.94105C17.3153 10.7933 17.5781 11.7592 17.5781 12.8388C17.5781 13.7266 17.4077 14.4865 17.0668 15.1186C16.7259 15.7436 16.2678 16.2514 15.6925 16.642C15.1172 17.0327 14.4744 17.3132 13.7642 17.4837V17.6967C14.5384 17.7393 15.2805 17.9773 15.9908 18.4105C16.7081 18.8366 17.294 19.4403 17.7486 20.2216C18.2031 21.0028 18.4304 21.9474 18.4304 23.0554C18.4304 24.1847 18.157 25.2003 17.6101 26.1023C17.0632 26.9972 16.2393 27.7038 15.1385 28.2223C14.0376 28.7408 12.6527 29 10.9837 29H2.15199ZM6.1044 25.6974H10.3551C11.7898 25.6974 12.8232 25.424 13.4553 24.8771C14.0945 24.3232 14.4141 23.6129 14.4141 22.7464C14.4141 22.1001 14.2543 21.5178 13.9347 20.9993C13.6151 20.4737 13.1605 20.0618 12.571 19.7635C11.9815 19.4581 11.2784 19.3054 10.4616 19.3054H6.1044V25.6974ZM6.1044 16.4609H10.0142C10.696 16.4609 11.3104 16.3366 11.8572 16.0881C12.4041 15.8324 12.8338 15.4737 13.1463 15.0121C13.4659 14.5433 13.6257 13.9893 13.6257 13.3501C13.6257 12.505 13.3274 11.8089 12.7308 11.2621C12.1413 10.7152 11.2642 10.4418 10.0994 10.4418H6.1044V16.4609ZM21.8688 29V7.18182H25.8212V25.6868H35.4306V29H21.8688ZM52.6145 7.18182H56.5669V21.4361C56.5669 22.9986 56.1976 24.3729 55.459 25.5589C54.7275 26.745 53.6976 27.6719 52.3695 28.3395C51.0414 29 49.4895 29.3303 47.714 29.3303C45.9313 29.3303 44.3759 29 43.0478 28.3395C41.7196 27.6719 40.6898 26.745 39.9583 25.5589C39.2267 24.3729 38.861 22.9986 38.861 21.4361V7.18182H42.8134V21.1058C42.8134 22.0149 43.0123 22.8246 43.41 23.5348C43.8148 24.245 44.383 24.8026 45.1145 25.2074C45.8461 25.6051 46.7125 25.804 47.714 25.804C48.7154 25.804 49.5819 25.6051 50.3134 25.2074C51.052 24.8026 51.6202 24.245 52.0179 23.5348C52.4157 22.8246 52.6145 22.0149 52.6145 21.1058V7.18182ZM60.8629 29V7.18182H75.0533V10.495H64.8153V16.4183H74.3182V19.7315H64.8153V25.6868H75.1385V29H60.8629ZM88.8335 16.5036V19.6783H79.011V16.5036H88.8335ZM111.736 14.5433H107.751C107.638 13.8899 107.428 13.3111 107.123 12.8068C106.817 12.2955 106.437 11.8622 105.983 11.5071C105.528 11.152 105.01 10.8857 104.427 10.7081C103.852 10.5234 103.231 10.4311 102.563 10.4311C101.377 10.4311 100.326 10.7294 99.4096 11.326C98.4934 11.9155 97.7761 12.782 97.2576 13.9254C96.7392 15.0618 96.4799 16.4503 96.4799 18.0909C96.4799 19.7599 96.7392 21.1662 97.2576 22.3097C97.7832 23.446 98.5005 24.3054 99.4096 24.8878C100.326 25.4631 101.373 25.7507 102.552 25.7507C103.206 25.7507 103.817 25.6655 104.385 25.495C104.96 25.3175 105.475 25.0582 105.93 24.7173C106.391 24.3764 106.778 23.9574 107.091 23.4602C107.41 22.9631 107.631 22.3949 107.751 21.7557L111.736 21.777C111.586 22.8139 111.263 23.7869 110.766 24.696C110.276 25.6051 109.633 26.4077 108.838 27.1037C108.042 27.7926 107.112 28.3324 106.047 28.723C104.981 29.1065 103.799 29.2983 102.499 29.2983C100.581 29.2983 98.8699 28.8544 97.3642 27.9666C95.8585 27.0788 94.6724 25.7969 93.8059 24.1207C92.9395 22.4446 92.5062 20.4347 92.5062 18.0909C92.5062 15.7401 92.943 13.7301 93.8166 12.0611C94.6902 10.3849 95.8798 9.10298 97.3855 8.2152C98.8912 7.32741 100.596 6.88352 102.499 6.88352C103.714 6.88352 104.843 7.05398 105.887 7.39489C106.931 7.7358 107.861 8.23651 108.678 8.89702C109.495 9.55043 110.166 10.353 110.692 11.3047C111.224 12.2493 111.572 13.3288 111.736 14.5433ZM137.679 29V7.18182H151.657V10.495H141.632V16.4183H150.698V19.7315H141.632V29H137.679ZM155.257 29V7.18182H169.235V10.495H159.21V16.4183H168.276V19.7315H159.21V29H155.257ZM172.836 29V7.18182H187.026V10.495H176.788V16.4183H186.291V19.7315H176.788V25.6868H187.111V29H172.836ZM191.058 29V7.18182H205.249V10.495H195.011V16.4183H204.513V19.7315H195.011V25.6868H205.334V29H191.058Z" fill="#101010"/>
<path d="M134 17.9029C134 23.9243 129.492 29.9998 125.466 28.8057C118.65 25.6387 124.504 22.0563 127.077 14.8397C129.76 7.31151 120.753 7 125.466 7C130.179 7 134 11.8814 134 17.9029Z" fill="#009DFF"/>
<path d="M115 18.4697C115 12.4482 119.508 6.37271 123.534 7.56683C127.989 9.28014 127.184 15.095 121.87 21.5329C116.771 27.2439 128.247 29.3726 123.534 29.3726C118.821 29.3726 115 24.4912 115 18.4697Z" fill="#1BA8FF"/>
</svg>
