<svg width="1125" height="785" viewBox="0 0 1125 785" fill="none" xmlns="http://www.w3.org/2000/svg">
<path d="M9.19318 130V-0.909095H59.3068C68.767 -0.909095 76.6293 0.582381 82.8935 3.56533C89.2003 6.50568 93.9091 10.5327 97.0199 15.6463C100.173 20.7599 101.75 26.5554 101.75 33.0327C101.75 38.3594 100.727 42.919 98.6818 46.7116C96.6364 50.4616 93.8878 53.5085 90.4361 55.8523C86.9844 58.196 83.1278 59.8793 78.8665 60.902V62.1804C83.5114 62.4361 87.9645 63.8636 92.2259 66.4631C96.5298 69.0199 100.045 72.642 102.773 77.3295C105.5 82.017 106.864 87.6847 106.864 94.3324C106.864 101.108 105.223 107.202 101.942 112.614C98.6605 117.983 93.7173 122.223 87.1122 125.334C80.5071 128.445 72.1974 130 62.1832 130H9.19318ZM32.9077 110.185H58.4119C67.0199 110.185 73.2202 108.544 77.0128 105.263C80.848 101.939 82.7656 97.6776 82.7656 92.4787C82.7656 88.6009 81.8068 85.1065 79.8892 81.9957C77.9716 78.8423 75.2443 76.3707 71.7074 74.581C68.1705 72.7486 63.9517 71.8324 59.0511 71.8324H32.9077V110.185ZM32.9077 54.7656H56.3665C60.4574 54.7656 64.1435 54.0199 67.4247 52.5284C70.706 50.9943 73.2841 48.8423 75.1591 46.0724C77.0767 43.2599 78.0355 39.9361 78.0355 36.1009C78.0355 31.0298 76.2457 26.8537 72.6662 23.5724C69.1293 20.2912 63.8665 18.6506 56.8778 18.6506H32.9077V54.7656ZM127.494 130V-0.909095H151.208V110.121H208.865V130H127.494ZM311.968 -0.909095H335.683V84.6165C335.683 93.9915 333.467 102.237 329.035 109.354C324.646 116.47 318.467 122.031 310.498 126.037C302.529 130 293.218 131.982 282.565 131.982C271.869 131.982 262.537 130 254.568 126.037C246.599 122.031 240.42 116.47 236.031 109.354C231.642 102.237 229.447 93.9915 229.447 84.6165V-0.909095H253.162V82.6349C253.162 88.0895 254.355 92.9474 256.741 97.2088C259.17 101.47 262.579 104.815 266.968 107.244C271.358 109.631 276.556 110.824 282.565 110.824C288.574 110.824 293.772 109.631 298.162 107.244C302.593 104.815 306.002 101.47 308.389 97.2088C310.775 92.9474 311.968 88.0895 311.968 82.6349V-0.909095ZM361.459 130V-0.909095H446.601V18.9702H385.173V54.5099H442.19V74.3892H385.173V110.121H447.112V130H361.459ZM529.282 55.0213V74.0696H470.347V55.0213H529.282ZM666.695 43.2599H642.789C642.107 39.3395 640.85 35.8665 639.017 32.8409C637.185 29.7727 634.905 27.1733 632.178 25.0426C629.451 22.9119 626.34 21.3139 622.846 20.2486C619.394 19.1406 615.665 18.5866 611.659 18.5866C604.543 18.5866 598.236 20.3764 592.739 23.956C587.242 27.4929 582.938 32.6918 579.827 39.5526C576.716 46.3707 575.161 54.7017 575.161 64.5455C575.161 74.5597 576.716 82.9972 579.827 89.858C582.98 96.6761 587.284 101.832 592.739 105.327C598.236 108.778 604.522 110.504 611.596 110.504C615.516 110.504 619.181 109.993 622.59 108.97C626.042 107.905 629.131 106.349 631.858 104.304C634.628 102.259 636.951 99.7443 638.826 96.7614C640.743 93.7784 642.064 90.3693 642.789 86.5341L666.695 86.6619C665.8 92.8835 663.861 98.7216 660.878 104.176C657.938 109.631 654.081 114.446 649.309 118.622C644.536 122.756 638.953 125.994 632.561 128.338C626.169 130.639 619.074 131.79 611.276 131.79C599.77 131.79 589.5 129.126 580.466 123.8C571.432 118.473 564.316 110.781 559.117 100.724C553.918 90.6676 551.319 78.608 551.319 64.5455C551.319 50.4403 553.939 38.3807 559.181 28.3665C564.422 18.3097 571.56 10.6179 580.594 5.29119C589.628 -0.0355172 599.855 -2.69887 611.276 -2.69887C618.563 -2.69887 625.338 -1.67614 631.603 0.36931C637.867 2.41477 643.449 5.41903 648.35 9.3821C653.25 13.3026 657.277 18.1179 660.431 23.8281C663.627 29.4957 665.715 35.973 666.695 43.2599ZM822.357 130V-0.909095H906.221V18.9702H846.072V54.5099H900.468V74.3892H846.072V130H822.357ZM927.826 130V-0.909095H1011.69V18.9702H951.54V54.5099H1005.94V74.3892H951.54V130H927.826ZM1033.29 130V-0.909095H1118.44V18.9702H1057.01V54.5099H1114.03V74.3892H1057.01V110.121H1118.95V130H1033.29ZM9.19318 348V217.091H59.3068C68.767 217.091 76.6293 218.582 82.8935 221.565C89.2003 224.506 93.9091 228.533 97.0199 233.646C100.173 238.76 101.75 244.555 101.75 251.033C101.75 256.359 100.727 260.919 98.6818 264.712C96.6364 268.462 93.8878 271.509 90.4361 273.852C86.9844 276.196 83.1278 277.879 78.8665 278.902V280.18C83.5114 280.436 87.9645 281.864 92.2259 284.463C96.5298 287.02 100.045 290.642 102.773 295.33C105.5 300.017 106.864 305.685 106.864 312.332C106.864 319.108 105.223 325.202 101.942 330.614C98.6605 335.983 93.7173 340.223 87.1122 343.334C80.5071 346.445 72.1974 348 62.1832 348H9.19318ZM32.9077 328.185H58.4119C67.0199 328.185 73.2202 326.544 77.0128 323.263C80.848 319.939 82.7656 315.678 82.7656 310.479C82.7656 306.601 81.8068 303.107 79.8892 299.996C77.9716 296.842 75.2443 294.371 71.7074 292.581C68.1705 290.749 63.9517 289.832 59.0511 289.832H32.9077V328.185ZM32.9077 272.766H56.3665C60.4574 272.766 64.1435 272.02 67.4247 270.528C70.706 268.994 73.2841 266.842 75.1591 264.072C77.0767 261.26 78.0355 257.936 78.0355 254.101C78.0355 249.03 76.2457 244.854 72.6662 241.572C69.1293 238.291 63.8665 236.651 56.8778 236.651H32.9077V272.766ZM127.494 348V217.091H151.208V328.121H208.865V348H127.494ZM311.968 217.091H335.683V302.616C335.683 311.991 333.467 320.237 329.035 327.354C324.646 334.47 318.467 340.031 310.498 344.037C302.529 348 293.218 349.982 282.565 349.982C271.869 349.982 262.537 348 254.568 344.037C246.599 340.031 240.42 334.47 236.031 327.354C231.642 320.237 229.447 311.991 229.447 302.616V217.091H253.162V300.635C253.162 306.089 254.355 310.947 256.741 315.209C259.17 319.47 262.579 322.815 266.968 325.244C271.358 327.631 276.556 328.824 282.565 328.824C288.574 328.824 293.772 327.631 298.162 325.244C302.593 322.815 306.002 319.47 308.389 315.209C310.775 310.947 311.968 306.089 311.968 300.635V217.091ZM361.459 348V217.091H446.601V236.97H385.173V272.51H442.19V292.389H385.173V328.121H447.112V348H361.459ZM529.282 273.021V292.07H470.347V273.021H529.282ZM666.695 261.26H642.789C642.107 257.339 640.85 253.866 639.017 250.841C637.185 247.773 634.905 245.173 632.178 243.043C629.451 240.912 626.34 239.314 622.846 238.249C619.394 237.141 615.665 236.587 611.659 236.587C604.543 236.587 598.236 238.376 592.739 241.956C587.242 245.493 582.938 250.692 579.827 257.553C576.716 264.371 575.161 272.702 575.161 282.545C575.161 292.56 576.716 300.997 579.827 307.858C582.98 314.676 587.284 319.832 592.739 323.327C598.236 326.778 604.522 328.504 611.596 328.504C615.516 328.504 619.181 327.993 622.59 326.97C626.042 325.905 629.131 324.349 631.858 322.304C634.628 320.259 636.951 317.744 638.826 314.761C640.743 311.778 642.064 308.369 642.789 304.534L666.695 304.662C665.8 310.884 663.861 316.722 660.878 322.176C657.938 327.631 654.081 332.446 649.309 336.622C644.536 340.756 638.953 343.994 632.561 346.338C626.169 348.639 619.074 349.79 611.276 349.79C599.77 349.79 589.5 347.126 580.466 341.8C571.432 336.473 564.316 328.781 559.117 318.724C553.918 308.668 551.319 296.608 551.319 282.545C551.319 268.44 553.939 256.381 559.181 246.366C564.422 236.31 571.56 228.618 580.594 223.291C589.628 217.964 599.855 215.301 611.276 215.301C618.563 215.301 625.338 216.324 631.603 218.369C637.867 220.415 643.449 223.419 648.35 227.382C653.25 231.303 657.277 236.118 660.431 241.828C663.627 247.496 665.715 253.973 666.695 261.26ZM822.357 348V217.091H906.221V236.97H846.072V272.51H900.468V292.389H846.072V348H822.357ZM927.826 348V217.091H1011.69V236.97H951.54V272.51H1005.94V292.389H951.54V348H927.826ZM1033.29 348V217.091H1118.44V236.97H1057.01V272.51H1114.03V292.389H1057.01V328.121H1118.95V348H1033.29ZM9.19318 566V435.091H59.3068C68.767 435.091 76.6293 436.582 82.8935 439.565C89.2003 442.506 93.9091 446.533 97.0199 451.646C100.173 456.76 101.75 462.555 101.75 469.033C101.75 474.359 100.727 478.919 98.6818 482.712C96.6364 486.462 93.8878 489.509 90.4361 491.852C86.9844 494.196 83.1278 495.879 78.8665 496.902V498.18C83.5114 498.436 87.9645 499.864 92.2259 502.463C96.5298 505.02 100.045 508.642 102.773 513.33C105.5 518.017 106.864 523.685 106.864 530.332C106.864 537.108 105.223 543.202 101.942 548.614C98.6605 553.983 93.7173 558.223 87.1122 561.334C80.5071 564.445 72.1974 566 62.1832 566H9.19318ZM32.9077 546.185H58.4119C67.0199 546.185 73.2202 544.544 77.0128 541.263C80.848 537.939 82.7656 533.678 82.7656 528.479C82.7656 524.601 81.8068 521.107 79.8892 517.996C77.9716 514.842 75.2443 512.371 71.7074 510.581C68.1705 508.749 63.9517 507.832 59.0511 507.832H32.9077V546.185ZM32.9077 490.766H56.3665C60.4574 490.766 64.1435 490.02 67.4247 488.528C70.706 486.994 73.2841 484.842 75.1591 482.072C77.0767 479.26 78.0355 475.936 78.0355 472.101C78.0355 467.03 76.2457 462.854 72.6662 459.572C69.1293 456.291 63.8665 454.651 56.8778 454.651H32.9077V490.766ZM127.494 566V435.091H151.208V546.121H208.865V566H127.494ZM311.968 435.091H335.683V520.616C335.683 529.991 333.467 538.237 329.035 545.354C324.646 552.47 318.467 558.031 310.498 562.037C302.529 566 293.218 567.982 282.565 567.982C271.869 567.982 262.537 566 254.568 562.037C246.599 558.031 240.42 552.47 236.031 545.354C231.642 538.237 229.447 529.991 229.447 520.616V435.091H253.162V518.635C253.162 524.089 254.355 528.947 256.741 533.209C259.17 537.47 262.579 540.815 266.968 543.244C271.358 545.631 276.556 546.824 282.565 546.824C288.574 546.824 293.772 545.631 298.162 543.244C302.593 540.815 306.002 537.47 308.389 533.209C310.775 528.947 311.968 524.089 311.968 518.635V435.091ZM361.459 566V435.091H446.601V454.97H385.173V490.51H442.19V510.389H385.173V546.121H447.112V566H361.459ZM529.282 491.021V510.07H470.347V491.021H529.282ZM666.695 479.26H642.789C642.107 475.339 640.85 471.866 639.017 468.841C637.185 465.773 634.905 463.173 632.178 461.043C629.451 458.912 626.34 457.314 622.846 456.249C619.394 455.141 615.665 454.587 611.659 454.587C604.543 454.587 598.236 456.376 592.739 459.956C587.242 463.493 582.938 468.692 579.827 475.553C576.716 482.371 575.161 490.702 575.161 500.545C575.161 510.56 576.716 518.997 579.827 525.858C582.98 532.676 587.284 537.832 592.739 541.327C598.236 544.778 604.522 546.504 611.596 546.504C615.516 546.504 619.181 545.993 622.59 544.97C626.042 543.905 629.131 542.349 631.858 540.304C634.628 538.259 636.951 535.744 638.826 532.761C640.743 529.778 642.064 526.369 642.789 522.534L666.695 522.662C665.8 528.884 663.861 534.722 660.878 540.176C657.938 545.631 654.081 550.446 649.309 554.622C644.536 558.756 638.953 561.994 632.561 564.338C626.169 566.639 619.074 567.79 611.276 567.79C599.77 567.79 589.5 565.126 580.466 559.8C571.432 554.473 564.316 546.781 559.117 536.724C553.918 526.668 551.319 514.608 551.319 500.545C551.319 486.44 553.939 474.381 559.181 464.366C564.422 454.31 571.56 446.618 580.594 441.291C589.628 435.964 599.855 433.301 611.276 433.301C618.563 433.301 625.338 434.324 631.603 436.369C637.867 438.415 643.449 441.419 648.35 445.382C653.25 449.303 657.277 454.118 660.431 459.828C663.627 465.496 665.715 471.973 666.695 479.26ZM822.357 566V435.091H906.221V454.97H846.072V490.51H900.468V510.389H846.072V566H822.357ZM927.826 566V435.091H1011.69V454.97H951.54V490.51H1005.94V510.389H951.54V566H927.826ZM1033.29 566V435.091H1118.44V454.97H1057.01V490.51H1114.03V510.389H1057.01V546.121H1118.95V566H1033.29ZM9.19318 784V653.091H59.3068C68.767 653.091 76.6293 654.582 82.8935 657.565C89.2003 660.506 93.9091 664.533 97.0199 669.646C100.173 674.76 101.75 680.555 101.75 687.033C101.75 692.359 100.727 696.919 98.6818 700.712C96.6364 704.462 93.8878 707.509 90.4361 709.852C86.9844 712.196 83.1278 713.879 78.8665 714.902V716.18C83.5114 716.436 87.9645 717.864 92.2259 720.463C96.5298 723.02 100.045 726.642 102.773 731.33C105.5 736.017 106.864 741.685 106.864 748.332C106.864 755.108 105.223 761.202 101.942 766.614C98.6605 771.983 93.7173 776.223 87.1122 779.334C80.5071 782.445 72.1974 784 62.1832 784H9.19318ZM32.9077 764.185H58.4119C67.0199 764.185 73.2202 762.544 77.0128 759.263C80.848 755.939 82.7656 751.678 82.7656 746.479C82.7656 742.601 81.8068 739.107 79.8892 735.996C77.9716 732.842 75.2443 730.371 71.7074 728.581C68.1705 726.749 63.9517 725.832 59.0511 725.832H32.9077V764.185ZM32.9077 708.766H56.3665C60.4574 708.766 64.1435 708.02 67.4247 706.528C70.706 704.994 73.2841 702.842 75.1591 700.072C77.0767 697.26 78.0355 693.936 78.0355 690.101C78.0355 685.03 76.2457 680.854 72.6662 677.572C69.1293 674.291 63.8665 672.651 56.8778 672.651H32.9077V708.766ZM127.494 784V653.091H151.208V764.121H208.865V784H127.494ZM311.968 653.091H335.683V738.616C335.683 747.991 333.467 756.237 329.035 763.354C324.646 770.47 318.467 776.031 310.498 780.037C302.529 784 293.218 785.982 282.565 785.982C271.869 785.982 262.537 784 254.568 780.037C246.599 776.031 240.42 770.47 236.031 763.354C231.642 756.237 229.447 747.991 229.447 738.616V653.091H253.162V736.635C253.162 742.089 254.355 746.947 256.741 751.209C259.17 755.47 262.579 758.815 266.968 761.244C271.358 763.631 276.556 764.824 282.565 764.824C288.574 764.824 293.772 763.631 298.162 761.244C302.593 758.815 306.002 755.47 308.389 751.209C310.775 746.947 311.968 742.089 311.968 736.635V653.091ZM361.459 784V653.091H446.601V672.97H385.173V708.51H442.19V728.389H385.173V764.121H447.112V784H361.459ZM529.282 709.021V728.07H470.347V709.021H529.282ZM666.695 697.26H642.789C642.107 693.339 640.85 689.866 639.017 686.841C637.185 683.773 634.905 681.173 632.178 679.043C629.451 676.912 626.34 675.314 622.846 674.249C619.394 673.141 615.665 672.587 611.659 672.587C604.543 672.587 598.236 674.376 592.739 677.956C587.242 681.493 582.938 686.692 579.827 693.553C576.716 700.371 575.161 708.702 575.161 718.545C575.161 728.56 576.716 736.997 579.827 743.858C582.98 750.676 587.284 755.832 592.739 759.327C598.236 762.778 604.522 764.504 611.596 764.504C615.516 764.504 619.181 763.993 622.59 762.97C626.042 761.905 629.131 760.349 631.858 758.304C634.628 756.259 636.951 753.744 638.826 750.761C640.743 747.778 642.064 744.369 642.789 740.534L666.695 740.662C665.8 746.884 663.861 752.722 660.878 758.176C657.938 763.631 654.081 768.446 649.309 772.622C644.536 776.756 638.953 779.994 632.561 782.338C626.169 784.639 619.074 785.79 611.276 785.79C599.77 785.79 589.5 783.126 580.466 777.8C571.432 772.473 564.316 764.781 559.117 754.724C553.918 744.668 551.319 732.608 551.319 718.545C551.319 704.44 553.939 692.381 559.181 682.366C564.422 672.31 571.56 664.618 580.594 659.291C589.628 653.964 599.855 651.301 611.276 651.301C618.563 651.301 625.338 652.324 631.603 654.369C637.867 656.415 643.449 659.419 648.35 663.382C653.25 667.303 657.277 672.118 660.431 677.828C663.627 683.496 665.715 689.973 666.695 697.26ZM822.357 784V653.091H906.221V672.97H846.072V708.51H900.468V728.389H846.072V784H822.357ZM927.826 784V653.091H1011.69V672.97H951.54V708.51H1005.94V728.389H951.54V784H927.826ZM1033.29 784V653.091H1118.44V672.97H1057.01V708.51H1114.03V728.389H1057.01V764.121H1118.95V784H1033.29Z" fill="#1BA8FF" fill-opacity="0.4"/>
<path d="M799 62.9933C799 98.1713 772.662 133.665 749.144 126.689C709.323 108.187 743.522 87.2582 758.551 45.0979C774.229 1.11778 721.61 -0.702087 749.144 -0.702087C776.679 -0.702087 799 27.8153 799 62.9933Z" fill="#009DFF" fill-opacity="0.6"/>
<path d="M688 66.3046C688 31.1266 714.338 -4.36693 737.856 2.60924C763.881 12.6185 759.177 46.5894 728.135 84.2C698.347 117.564 765.39 130 737.856 130C710.321 130 688 101.483 688 66.3046Z" fill="#1BA8FF" fill-opacity="0.5"/>
<path d="M799 280.695C799 315.873 772.662 351.367 749.144 344.391C709.323 325.889 743.522 304.96 758.551 262.8C774.229 218.82 721.61 217 749.144 217C776.679 217 799 245.517 799 280.695Z" fill="#009DFF" fill-opacity="0.6"/>
<path d="M688 284.007C688 248.829 714.338 213.335 737.856 220.311C763.881 230.321 759.177 264.291 728.135 301.902C698.347 335.266 765.39 347.702 737.856 347.702C710.321 347.702 688 319.185 688 284.007Z" fill="#1BA8FF" fill-opacity="0.5"/>
<path d="M799 498.695C799 533.873 772.662 569.367 749.144 562.391C709.323 543.889 743.522 522.96 758.551 480.8C774.229 436.82 721.61 435 749.144 435C776.679 435 799 463.517 799 498.695Z" fill="#009DFF" fill-opacity="0.6"/>
<path d="M688 502.007C688 466.829 714.338 431.335 737.856 438.311C763.881 448.321 759.177 482.291 728.135 519.902C698.347 553.266 765.39 565.702 737.856 565.702C710.321 565.702 688 537.185 688 502.007Z" fill="#1BA8FF" fill-opacity="0.5"/>
<path d="M799 716.695C799 751.873 772.662 787.367 749.144 780.391C709.323 761.889 743.522 740.96 758.551 698.8C774.229 654.82 721.61 653 749.144 653C776.679 653 799 681.517 799 716.695Z" fill="#009DFF" fill-opacity="0.6"/>
<path d="M688 720.007C688 684.829 714.338 649.335 737.856 656.311C763.881 666.321 759.177 700.291 728.135 737.902C698.347 771.266 765.39 783.702 737.856 783.702C710.321 783.702 688 755.185 688 720.007Z" fill="#1BA8FF" fill-opacity="0.5"/>
</svg>
